<svg xmlns="http://www.w3.org/2000/svg" width="32" height="32">
    <path style="stroke:none;fill-rule:evenodd;fill:#000;fill-opacity:1" d="M17.293 11.293a1 1 0 0 1 1.414 0l4 4a1 1 0 0 1 0 1.414l-4 4a1 1 0 1 1-1.414-1.414L20.586 16l-3.293-3.293a1 1 0 0 1 0-1.414Zm-2.586 0a1 1 0 0 0-1.414 0l-4 4a1 1 0 0 0 0 1.414l4 4a1 1 0 1 0 1.414-1.414L11.414 16l3.293-3.293a1 1 0 0 0 0-1.414Zm0 0"/>
    <path style="stroke:none;fill-rule:nonzero;fill:#000;fill-opacity:1" d="M6 0h20c2.21 0 4 1.79 4 4v24c0 2.21-1.79 4-4 4H6c-2.21 0-4-1.79-4-4v-2h2v2c0 1.105.895 2 2 2h20c1.105 0 2-.895 2-2V4c0-1.105-.895-2-2-2H6c-1.105 0-2 .895-2 2v2H2V4c0-2.21 1.79-4 4-4Zm0 0"/>
    <path style="stroke:none;fill-rule:nonzero;fill:#000;fill-opacity:1" d="M2 10V9c0-.55.45-1 1-1s1 .45 1 1v1h1c.55 0 1 .45 1 1s-.45 1-1 1H1c-.55 0-1-.45-1-1s.45-1 1-1Zm0 6v-1c0-.55.45-1 1-1s1 .45 1 1v1h1c.55 0 1 .45 1 1s-.45 1-1 1H1c-.55 0-1-.45-1-1s.45-1 1-1Zm0 6v-1c0-.55.45-1 1-1s1 .45 1 1v1h1c.55 0 1 .45 1 1s-.45 1-1 1H1c-.55 0-1-.45-1-1s.45-1 1-1Zm0 0"/>
</svg>
