<svg xmlns="http://www.w3.org/2000/svg" width="64" height="64">
    <path style="stroke:none;fill-rule:nonzero;fill:#000;fill-opacity:1" d="M32 2.668c-8.863 0-16 7.137-16 16v2.664c-2.934 0-5.332 2.402-5.332 5.336v26.664c0 2.934 2.398 5.336 5.332 5.336h32c2.934 0 5.332-2.402 5.332-5.336V26.668c0-2.934-2.398-5.336-5.332-5.336v-2.664c0-8.863-7.137-16-16-16ZM32 8c6.07 0 10.668 4.598 10.668 10.668v2.664H21.332v-2.664C21.332 12.598 25.93 8 32 8Zm0 26.668c2.934 0 5.332 2.398 5.332 5.332 0 2.934-2.398 5.332-5.332 5.332-2.934 0-5.332-2.398-5.332-5.332 0-2.934 2.398-5.332 5.332-5.332Zm0 0"/>
</svg>
