<svg id="visual" viewBox="0 0 295 400" width="295" height="400" xmlns="http://www.w3.org/2000/svg" xmlns:xlink="http://www.w3.org/1999/xlink" version="1.1"><rect x="0" y="0" width="295" height="400" fill="#ffffff"></rect><path d="M0 149L12.3 146.3C24.7 143.7 49.3 138.3 74 141.5C98.7 144.7 123.3 156.3 147.8 168.7C172.3 181 196.7 194 221.2 192.8C245.7 191.7 270.3 176.3 282.7 168.7L295 161L295 0L282.7 0C270.3 0 245.7 0 221.2 0C196.7 0 172.3 0 147.8 0C123.3 0 98.7 0 74 0C49.3 0 24.7 0 12.3 0L0 0Z" fill="#7300ec" stroke-linecap="round" stroke-linejoin="miter"></path></svg>